<svg xmlns="http://www.w3.org/2000/svg" viewBox="0 0 220 64" role="img" aria-label="PJM Group">
  <defs>
    <linearGradient id="pjmBlue" x1="0" x2="1" y1="0" y2="1">
      <stop offset="0" stop-color="#0f5ea8"/>
      <stop offset="1" stop-color="#1fa8e5"/>
    </linearGradient>
    <linearGradient id="pjmRed" x1="0" x2="1" y1="0" y2="1">
      <stop offset="0" stop-color="#ef4444"/>
      <stop offset="1" stop-color="#f97316"/>
    </linearGradient>
  </defs>
  <rect width="220" height="64" rx="14" fill="#ffffff"/>
  <g transform="translate(14 10)">
    <path d="M19 3c13 0 23 8 29 20C38 14 27 11 13 15c9-9 18-12 33-9-8-5-17-7-27-3z" fill="url(#pjmBlue)"/>
    <path d="M6 30c16-8 29-7 42 2-13-3-24-2-36 6-3-2-5-5-6-8z" fill="url(#pjmRed)"/>
    <path d="M13 17c16-4 30 1 40 14-14-8-28-9-44-2 0-5 1-9 4-12z" fill="#1fa8e5" opacity=".88"/>
  </g>
  <text x="72" y="31" font-family="Inter, Arial, sans-serif" font-size="20" font-weight="800" fill="#172033">PJM</text>
  <text x="117" y="31" font-family="Inter, Arial, sans-serif" font-size="20" font-weight="800" fill="#1fa8e5">GROUP</text>
  <text x="73" y="47" font-family="Inter, Arial, sans-serif" font-size="10" font-weight="700" letter-spacing="2" fill="#64748b">CAREER</text>
</svg>
